<svg width="245" height="63" viewBox="0 0 245 63" fill="none" xmlns="http://www.w3.org/2000/svg">
<path d="M0 0L78.6576 20.6195L112.179 26.0335L102.677 50.2564L49.8869 26.0335L0 0Z" fill="#D9D9D9"/>
<path d="M0 0L78.6576 20.6195L112.179 26.0335L102.677 50.2564L49.8869 26.0335L0 0Z" fill="#D9D9D9"/>
<path d="M0 0L49.8869 26.0335L102.677 50.2564L112.179 26.0335L78.6576 20.6195L0 0Z" stroke="black"/>
<path d="M0 0L78.6576 20.4763L112.179 25.8528L110.068 31.4103L70.2112 22.2655L0 0Z" fill="#A5A5A5"/>
<path d="M0 0L78.6576 20.4763L112.179 25.8528L110.068 31.4103L70.2112 22.2655L0 0Z" fill="#A5A5A5"/>
<path d="M0 0L70.2112 22.2655L110.068 31.4103L112.179 25.8528L78.6576 20.4763L0 0Z" stroke="black"/>
<path d="M245 0L166.342 20.6195L132.821 26.0335L142.323 50.2564L195.113 26.0335L245 0Z" fill="#D9D9D9"/>
<path d="M245 0L166.342 20.6195L132.821 26.0335L142.323 50.2564L195.113 26.0335L245 0Z" fill="#D9D9D9"/>
<path d="M245 0L195.113 26.0335L142.323 50.2564L132.821 26.0335L166.342 20.6195L245 0Z" stroke="black"/>
<path d="M245 0L166.342 20.4763L132.821 25.8528L134.932 31.4103L174.789 22.2655L245 0Z" fill="#A5A5A5"/>
<path d="M245 0L166.342 20.4763L132.821 25.8528L134.932 31.4103L174.789 22.2655L245 0Z" fill="#A5A5A5"/>
<path d="M245 0L174.789 22.2655L134.932 31.4103L132.821 25.8528L166.342 20.4763L245 0Z" stroke="black"/>
<path d="M135.121 23.8333L142.907 52.057L122.993 61.9447L102.006 52.0511L109.982 23.8333H135.121Z" fill="#950000" stroke="black"/>
<path d="M130.949 28.1154L136.703 46.6818L122.999 53.4425L109.184 46.6759L114.43 28.1154H130.949Z" fill="#B40C0C" stroke="black"/>
<path d="M117.054 41.021L120.07 39.5C120.139 39.4567 120.191 39.4177 120.226 39.383C120.261 39.3483 120.278 39.2877 120.278 39.201V37.316C120.278 37.1773 120.209 37.108 120.07 37.108H115.91V35.691L119.68 35.626C120.503 35.6087 121.084 35.795 121.422 36.185C121.76 36.5663 121.929 37.0993 121.929 37.784V39.097C121.929 39.565 121.816 39.9203 121.591 40.163C121.374 40.4057 121.023 40.6527 120.538 40.904L117.613 42.373C117.492 42.4337 117.414 42.503 117.379 42.581C117.344 42.659 117.327 42.776 117.327 42.932V44.583H121.89V46H115.689V42.932C115.689 42.5247 115.737 42.2127 115.832 41.996C115.936 41.7793 116.088 41.6017 116.287 41.463C116.495 41.3243 116.751 41.177 117.054 41.021ZM126.857 39.63C127.654 39.63 128.265 39.8163 128.69 40.189C129.115 40.553 129.327 41.0947 129.327 41.814V43.855C129.327 44.5917 129.119 45.1507 128.703 45.532C128.296 45.9047 127.693 46.0823 126.896 46.065L123.204 46V44.583H127.442C127.581 44.583 127.65 44.5137 127.65 44.375V41.255C127.65 41.1163 127.581 41.047 127.442 41.047H123.321V35.691H128.937V37.108H124.933V39.63H126.857Z" fill="white"/>
</svg>
